<?xml version="1.0" encoding="UTF-8" standalone="no"?>
<!-- Created with Inkscape (http://www.inkscape.org/) -->

<svg
   xmlns:dc="http://purl.org/dc/elements/1.1/"
   xmlns:cc="http://creativecommons.org/ns#"
   xmlns:rdf="http://www.w3.org/1999/02/22-rdf-syntax-ns#"
   xmlns:svg="http://www.w3.org/2000/svg"
   xmlns="http://www.w3.org/2000/svg"
   xmlns:sodipodi="http://sodipodi.sourceforge.net/DTD/sodipodi-0.dtd"
   xmlns:inkscape="http://www.inkscape.org/namespaces/inkscape"
   version="1.1"
   id="svg2"
   width="3000"
   height="200"
   viewBox="0 0 3000 200"
   sodipodi:docname="header.svg"
   inkscape:version="0.92.4 (5da689c313, 2019-01-14)">
  <metadata
     id="metadata8">
    <rdf:RDF>
      <cc:Work
         rdf:about="">
        <dc:format>image/svg+xml</dc:format>
        <dc:type
           rdf:resource="http://purl.org/dc/dcmitype/StillImage" />
        <dc:title></dc:title>
      </cc:Work>
    </rdf:RDF>
  </metadata>
  <defs
     id="defs6">
    <clipPath
       id="clipPath8084"
       clipPathUnits="userSpaceOnUse">
      <rect
         ry="0"
         rx="0"
         y="0"
         x="0"
         height="169"
         width="661"
         id="rect8086"
         style="opacity:1;vector-effect:none;fill:url(#linearGradient8088);fill-opacity:1;fill-rule:nonzero;stroke:none;stroke-width:7.55905533;stroke-miterlimit:4;stroke-dasharray:none;stroke-dashoffset:0;stroke-opacity:1;paint-order:markers stroke fill" />
    </clipPath>
    <clipPath
       id="clipPath884"
       clipPathUnits="userSpaceOnUse">
      <path
         inkscape:connector-curvature="0"
         id="path882"
         d="M 0,1360.63 H 935.43 V 0 H 0 Z" />
    </clipPath>
    <clipPath
       clipPathUnits="userSpaceOnUse"
       id="clipPath1019">
      <rect
         y="0"
         x="0"
         height="200"
         width="3000"
         id="rect1021"
         style="opacity:1;vector-effect:none;fill:#e7e9ea;fill-opacity:1;fill-rule:nonzero;stroke:none;stroke-width:7.55905533;stroke-miterlimit:4;stroke-dasharray:none;stroke-dashoffset:0;stroke-opacity:1;paint-order:markers stroke fill" />
    </clipPath>
    <clipPath
       clipPathUnits="userSpaceOnUse"
       id="clipPath1119">
      <rect
         y="-655.53119"
         x="-6817.9746"
         height="516.26874"
         width="7744.0312"
         id="rect1121"
         style="opacity:1;vector-effect:none;fill:#e7e9ea;fill-opacity:1;fill-rule:nonzero;stroke:none;stroke-width:19.51251984;stroke-miterlimit:4;stroke-dasharray:none;stroke-dashoffset:0;stroke-opacity:1;paint-order:markers stroke fill"
         transform="matrix(0.96592583,0.25881903,0.25881903,-0.96592583,0,0)" />
    </clipPath>
  </defs>
  <sodipodi:namedview
     pagecolor="#ffffff"
     bordercolor="#666666"
     borderopacity="1"
     objecttolerance="10"
     gridtolerance="10"
     guidetolerance="10"
     inkscape:pageopacity="0"
     inkscape:pageshadow="2"
     inkscape:window-width="2048"
     inkscape:window-height="1114"
     id="namedview4"
     showgrid="false"
     inkscape:pagecheckerboard="true"
     inkscape:zoom="0.37733333"
     inkscape:cx="1651.6438"
     inkscape:cy="-13.783404"
     inkscape:window-x="0"
     inkscape:window-y="30"
     inkscape:window-maximized="1"
     inkscape:current-layer="svg2"
     inkscape:snap-global="false" />
  <rect
     style="opacity:1;vector-effect:none;fill:#e7e9ea;fill-opacity:1;fill-rule:nonzero;stroke:none;stroke-width:7.55905533;stroke-miterlimit:4;stroke-dasharray:none;stroke-dashoffset:0;stroke-opacity:1;paint-order:markers stroke fill"
     id="rect12"
     width="3000"
     height="200"
     x="0"
     y="0" />
  <g
     style="opacity:0.05499998;fill:#ff0a9b;fill-opacity:1"
     id="g1115"
     inkscape:label="kamen_rider_decade_logo_by_animedark2_d935dll"
     transform="matrix(0.37419496,0.10026523,0.10026523,-0.37419496,2641.2501,253.9496)"
     clip-path="url(#clipPath1119)">
    <path
       d="M 208.557,505.542 H 170.4 v 251.38 h 38.157 z"
       style="fill:#ff0a9b;fill-opacity:1;fill-rule:evenodd;stroke:none"
       id="path1023"
       inkscape:connector-curvature="0" />
    <path
       d="m 782.052,756.943 h 37.903 V 505.588 h -37.903 z"
       style="fill:#ff0a9b;fill-opacity:1;fill-rule:evenodd;stroke:none"
       id="path1025"
       inkscape:connector-curvature="0" />
    <path
       d="m 740.687,757.013 h 30.811 V 505.624 h -30.811 z"
       style="fill:#ff0a9b;fill-opacity:1;fill-rule:evenodd;stroke:none"
       id="path1027"
       inkscape:connector-curvature="0" />
    <path
       d="m 474.441,397.934 h -22.233 v 301.919 h 22.233 z"
       style="fill:#ff0a9b;fill-opacity:1;fill-rule:evenodd;stroke:none"
       id="path1029"
       inkscape:connector-curvature="0" />
    <path
       d="m 115.683,756.917 h 25.701 V 505.723 h -25.701 z"
       style="fill:#ff0a9b;fill-opacity:1;fill-rule:evenodd;stroke:none"
       id="path1031"
       inkscape:connector-curvature="0" />
    <path
       d="m 657.142,756.961 h 25.856 V 505.576 h -25.856 z"
       style="fill:#ff0a9b;fill-opacity:1;fill-rule:evenodd;stroke:none"
       id="path1033"
       inkscape:connector-curvature="0" />
    <g
       style="fill:#ff0a9b;fill-opacity:1"
       id="g1113">
      <g
         style="fill:#ff0a9b;fill-opacity:1"
         id="g1111"
         clip-path="url(#clipPath884)">
        <g
           style="fill:#ff0a9b;fill-opacity:1"
           id="g1037"
           transform="translate(378.6729,689.3164)">
          <path
             d="m 0,0 c -7.318,3.792 -14.379,7.411 -21.381,11.139 -0.709,0.379 -1.361,1.355 -1.524,2.159 -0.261,1.282 -0.096,2.652 -0.096,3.985 -10e-4,82.986 -10e-4,165.971 -10e-4,248.957 v 5.687 H 0 Z"
             style="fill:#ff0a9b;fill-opacity:1;fill-rule:evenodd;stroke:none"
             id="path1035"
             inkscape:connector-curvature="0" />
        </g>
        <g
           style="fill:#ff0a9b;fill-opacity:1"
           id="g1041"
           transform="translate(547.0518,961.3379)">
          <path
             d="m 0,0 h 22.953 v -5.258 c 0,-83.307 -0.031,-166.616 0.098,-249.924 0.006,-3.964 -1.2,-5.525 -4.853,-7.095 -6.195,-2.663 -11.903,-6.46 -18.198,-9.995 z"
             style="fill:#ff0a9b;fill-opacity:1;fill-rule:evenodd;stroke:none"
             id="path1039"
             inkscape:connector-curvature="0" />
        </g>
        <path
           d="M 237.38,505.543 H 215.167 V 756.921 H 237.38 Z"
           style="fill:#ff0a9b;fill-opacity:1;fill-rule:evenodd;stroke:none"
           id="path1043"
           inkscape:connector-curvature="0" />
        <g
           style="fill:#ff0a9b;fill-opacity:1"
           id="g1047"
           transform="translate(499.4023,888.0654)">
          <path
             d="m 0,0 h 23.005 c 0.092,-1.867 0.252,-3.619 0.252,-5.371 0.013,-67.608 -0.013,-135.216 0.08,-202.823 0.005,-3.401 -1.066,-4.966 -4.088,-6.793 C 12.611,-219.001 6.556,-223.979 0,-228.754 Z"
             style="fill:#ff0a9b;fill-opacity:1;fill-rule:evenodd;stroke:none"
             id="path1045"
             inkscape:connector-curvature="0" />
        </g>
        <g
           style="fill:#ff0a9b;fill-opacity:1"
           id="g1051"
           transform="translate(401.3311,888.9492)">
          <path
             d="m 0,0 h 23.174 v -228.958 c -5.703,4.354 -10.764,9.348 -16.789,12.488 -5.502,2.867 -6.518,6.366 -6.502,11.985 C 0.066,-138.534 0,-72.583 0,-6.632 Z"
             style="fill:#ff0a9b;fill-opacity:1;fill-rule:evenodd;stroke:none"
             id="path1049"
             inkscape:connector-curvature="0" />
        </g>
        <g
           style="fill:#ff0a9b;fill-opacity:1"
           id="g1055"
           transform="translate(497.9668,576.1729)">
          <path
             d="m 0,0 c 8.576,-5.525 16.829,-10.768 24.958,-16.194 0.847,-0.565 1.355,-2.227 1.356,-3.38 0.049,-52.306 0.025,-104.612 -0.008,-156.917 0,-0.475 -0.227,-0.949 -0.436,-1.769 H 0 Z"
             style="fill:#ff0a9b;fill-opacity:1;fill-rule:evenodd;stroke:none"
             id="path1053"
             inkscape:connector-curvature="0" />
        </g>
        <g
           style="fill:#ff0a9b;fill-opacity:1"
           id="g1059"
           transform="translate(427.5703,397.8145)">
          <path
             d="m 0,0 h -25.988 c -0.085,1.839 -0.24,3.624 -0.24,5.408 -0.013,50.495 0.016,100.989 -0.07,151.485 -0.006,3.365 0.998,5.013 4.097,6.831 7.567,4.437 14.613,9.765 22.201,14.962 z"
             style="fill:#ff0a9b;fill-opacity:1;fill-rule:evenodd;stroke:none"
             id="path1057"
             inkscape:connector-curvature="0" />
        </g>
        <path
           d="m 247.706,756.935 h 15.661 V 505.744 h -15.661 z"
           style="fill:#ff0a9b;fill-opacity:1;fill-rule:evenodd;stroke:none"
           id="path1061"
           inkscape:connector-curvature="0" />
        <path
           d="m 705.585,505.624 h -13.5 v 251.249 h 13.5 z"
           style="fill:#ff0a9b;fill-opacity:1;fill-rule:evenodd;stroke:none"
           id="path1063"
           inkscape:connector-curvature="0" />
        <path
           d="m 149.187,756.943 h 13.291 V 505.797 h -13.291 z"
           style="fill:#ff0a9b;fill-opacity:1;fill-rule:evenodd;stroke:none"
           id="path1065"
           inkscape:connector-curvature="0" />
        <path
           d="m 713.334,756.978 h 11.993 V 505.757 h -11.993 z"
           style="fill:#ff0a9b;fill-opacity:1;fill-rule:evenodd;stroke:none"
           id="path1067"
           inkscape:connector-curvature="0" />
        <g
           style="fill:#ff0a9b;fill-opacity:1"
           id="g1071"
           transform="translate(332.4795,714.8369)">
          <path
             d="M 0,0 C -7.905,3.922 -15.311,7.595 -23.207,11.513 V 123.581 H 0 Z"
             style="fill:#ff0a9b;fill-opacity:1;fill-rule:evenodd;stroke:none"
             id="path1069"
             inkscape:connector-curvature="0" />
        </g>
        <g
           style="fill:#ff0a9b;fill-opacity:1"
           id="g1075"
           transform="translate(616.4385,726.3457)">
          <path
             d="M 0,0 C -7.741,-3.804 -15.279,-7.506 -23.136,-11.365 V 112.216 H 0 Z"
             style="fill:#ff0a9b;fill-opacity:1;fill-rule:evenodd;stroke:none"
             id="path1073"
             inkscape:connector-curvature="0" />
        </g>
        <path
           d="M 474.447,752.546 H 452.21 v 95.978 h 22.237 z"
           style="fill:#ff0a9b;fill-opacity:1;fill-rule:evenodd;stroke:none"
           id="path1077"
           inkscape:connector-curvature="0" />
        <g
           style="fill:#ff0a9b;fill-opacity:1"
           id="g1081"
           transform="translate(548.1934,429.0488)">
          <path
             d="m 0,0 v 111.758 c 6.617,-3.614 12.981,-7.01 19.222,-10.619 0.676,-0.392 0.885,-2.026 0.888,-3.084 C 20.158,74.914 20.196,51.772 20.046,28.632 20.034,26.867 18.905,24.89 17.789,23.387 11.863,15.413 5.776,7.561 0,0"
             style="fill:#ff0a9b;fill-opacity:1;fill-rule:evenodd;stroke:none"
             id="path1079"
             inkscape:connector-curvature="0" />
        </g>
        <g
           style="fill:#ff0a9b;fill-opacity:1"
           id="g1085"
           transform="translate(378.7432,540.8437)">
          <path
             d="m 0,0 v -111.204 c -6.036,7.785 -12.419,15.948 -18.689,24.198 -0.726,0.954 -1.162,2.384 -1.165,3.595 -0.066,24.128 -0.05,48.255 -0.05,71.831 C -13.122,-7.635 -6.748,-3.926 0,0"
             style="fill:#ff0a9b;fill-opacity:1;fill-rule:evenodd;stroke:none"
             id="path1083"
             inkscape:connector-curvature="0" />
        </g>
        <g
           style="fill:#ff0a9b;fill-opacity:1"
           id="g1089"
           transform="translate(299.9941,756.834)">
          <path
             d="m 0,0 c 0,-13.172 0.02,-25.963 -0.043,-38.754 -0.005,-0.868 -0.374,-2.165 -1.001,-2.534 -7.087,-4.164 -9.389,-11.469 -11.82,-18.458 -2.5,-7.191 -4.385,-14.619 -6.125,-22.04 -0.694,-2.96 -1.73,-4.11 -4.91,-3.096 V 0 Z"
             style="fill:#ff0a9b;fill-opacity:1;fill-rule:evenodd;stroke:none"
             id="path1087"
             inkscape:connector-curvature="0" />
        </g>
        <g
           style="fill:#ff0a9b;fill-opacity:1"
           id="g1093"
           transform="translate(299.9941,505.5576)">
          <path
             d="m 0,0 h -23.825 v 71.417 c 2.996,1.15 4.078,-0.035 5.006,-3.088 2.216,-7.293 4.425,-14.693 7.75,-21.509 2.149,-4.408 6.283,-7.841 9.475,-11.754 0.65,-0.795 1.517,-1.774 1.526,-2.676 C 0.038,21.761 0,11.13 0,0"
             style="fill:#ff0a9b;fill-opacity:1;fill-rule:evenodd;stroke:none"
             id="path1091"
             inkscape:connector-curvature="0" />
        </g>
        <g
           style="fill:#ff0a9b;fill-opacity:1"
           id="g1097"
           transform="translate(643.7178,756.8418)">
          <path
             d="m 0,0 v -65.668 c -5.787,11.42 -7.278,24.725 -19.735,31.225 V 0 Z"
             style="fill:#ff0a9b;fill-opacity:1;fill-rule:evenodd;stroke:none"
             id="path1095"
             inkscape:connector-curvature="0" />
        </g>
        <g
           style="fill:#ff0a9b;fill-opacity:1"
           id="g1101"
           transform="translate(643.418,505.6025)">
          <path
             d="m 0,0 h -19.559 c 0,9.137 -0.012,18.064 0.028,26.991 0.003,0.593 0.269,1.295 0.645,1.759 6.345,7.835 12.727,15.64 18.886,23.189 z"
             style="fill:#ff0a9b;fill-opacity:1;fill-rule:evenodd;stroke:none"
             id="path1099"
             inkscape:connector-curvature="0" />
        </g>
        <g
           style="fill:#ff0a9b;fill-opacity:1"
           id="g1105"
           transform="translate(309.6279,505.6074)">
          <path
             d="M 0,0 V 19.791 C 7.08,14.68 12.425,7.285 22.356,8.198 V 0 Z"
             style="fill:#ff0a9b;fill-opacity:1;fill-rule:evenodd;stroke:none"
             id="path1103"
             inkscape:connector-curvature="0" />
        </g>
        <g
           style="fill:#ff0a9b;fill-opacity:1"
           id="g1109"
           transform="translate(590.5381,505.7266)">
          <path
             d="M 0,0 V 7.974 C 9.548,7.188 15.144,13.93 21.997,19.596 V 0 Z"
             style="fill:#ff0a9b;fill-opacity:1;fill-rule:evenodd;stroke:none"
             id="path1107"
             inkscape:connector-curvature="0" />
        </g>
      </g>
    </g>
  </g>
  <g
     transform="matrix(0.15984961,0.04283157,0.04283157,-0.15984961,2777.7847,144.55137)"
     inkscape:label="kamen_rider_decade_logo_by_animedark2_d935dll"
     id="g864"
     style="fill:#ff0a9b;fill-opacity:1">
    <path
       inkscape:connector-curvature="0"
       id="path866"
       style="fill:#ff0a9b;fill-opacity:1;fill-rule:evenodd;stroke:none"
       d="M 208.557,505.542 H 170.4 v 251.38 h 38.157 z" />
    <path
       inkscape:connector-curvature="0"
       id="path868"
       style="fill:#ff0a9b;fill-opacity:1;fill-rule:evenodd;stroke:none"
       d="m 782.052,756.943 h 37.903 V 505.588 h -37.903 z" />
    <path
       inkscape:connector-curvature="0"
       id="path870"
       style="fill:#ff0a9b;fill-opacity:1;fill-rule:evenodd;stroke:none"
       d="m 740.687,757.013 h 30.811 V 505.624 h -30.811 z" />
    <path
       inkscape:connector-curvature="0"
       id="path872"
       style="fill:#ff0a9b;fill-opacity:1;fill-rule:evenodd;stroke:none"
       d="m 474.441,397.934 h -22.233 v 301.919 h 22.233 z" />
    <path
       inkscape:connector-curvature="0"
       id="path874"
       style="fill:#ff0a9b;fill-opacity:1;fill-rule:evenodd;stroke:none"
       d="m 115.683,756.917 h 25.701 V 505.723 h -25.701 z" />
    <path
       inkscape:connector-curvature="0"
       id="path876"
       style="fill:#ff0a9b;fill-opacity:1;fill-rule:evenodd;stroke:none"
       d="m 657.142,756.961 h 25.856 V 505.576 h -25.856 z" />
    <g
       id="g878"
       style="fill:#ff0a9b;fill-opacity:1">
      <g
         clip-path="url(#clipPath884)"
         id="g880"
         style="fill:#ff0a9b;fill-opacity:1">
        <g
           transform="translate(378.6729,689.3164)"
           id="g886"
           style="fill:#ff0a9b;fill-opacity:1">
          <path
             inkscape:connector-curvature="0"
             id="path888"
             style="fill:#ff0a9b;fill-opacity:1;fill-rule:evenodd;stroke:none"
             d="m 0,0 c -7.318,3.792 -14.379,7.411 -21.381,11.139 -0.709,0.379 -1.361,1.355 -1.524,2.159 -0.261,1.282 -0.096,2.652 -0.096,3.985 -10e-4,82.986 -10e-4,165.971 -10e-4,248.957 v 5.687 H 0 Z" />
        </g>
        <g
           transform="translate(547.0518,961.3379)"
           id="g890"
           style="fill:#ff0a9b;fill-opacity:1">
          <path
             inkscape:connector-curvature="0"
             id="path892"
             style="fill:#ff0a9b;fill-opacity:1;fill-rule:evenodd;stroke:none"
             d="m 0,0 h 22.953 v -5.258 c 0,-83.307 -0.031,-166.616 0.098,-249.924 0.006,-3.964 -1.2,-5.525 -4.853,-7.095 -6.195,-2.663 -11.903,-6.46 -18.198,-9.995 z" />
        </g>
        <path
           inkscape:connector-curvature="0"
           id="path894"
           style="fill:#ff0a9b;fill-opacity:1;fill-rule:evenodd;stroke:none"
           d="M 237.38,505.543 H 215.167 V 756.921 H 237.38 Z" />
        <g
           transform="translate(499.4023,888.0654)"
           id="g896"
           style="fill:#ff0a9b;fill-opacity:1">
          <path
             inkscape:connector-curvature="0"
             id="path898"
             style="fill:#ff0a9b;fill-opacity:1;fill-rule:evenodd;stroke:none"
             d="m 0,0 h 23.005 c 0.092,-1.867 0.252,-3.619 0.252,-5.371 0.013,-67.608 -0.013,-135.216 0.08,-202.823 0.005,-3.401 -1.066,-4.966 -4.088,-6.793 C 12.611,-219.001 6.556,-223.979 0,-228.754 Z" />
        </g>
        <g
           transform="translate(401.3311,888.9492)"
           id="g900"
           style="fill:#ff0a9b;fill-opacity:1">
          <path
             inkscape:connector-curvature="0"
             id="path902"
             style="fill:#ff0a9b;fill-opacity:1;fill-rule:evenodd;stroke:none"
             d="m 0,0 h 23.174 v -228.958 c -5.703,4.354 -10.764,9.348 -16.789,12.488 -5.502,2.867 -6.518,6.366 -6.502,11.985 C 0.066,-138.534 0,-72.583 0,-6.632 Z" />
        </g>
        <g
           transform="translate(497.9668,576.1729)"
           id="g904"
           style="fill:#ff0a9b;fill-opacity:1">
          <path
             inkscape:connector-curvature="0"
             id="path906"
             style="fill:#ff0a9b;fill-opacity:1;fill-rule:evenodd;stroke:none"
             d="m 0,0 c 8.576,-5.525 16.829,-10.768 24.958,-16.194 0.847,-0.565 1.355,-2.227 1.356,-3.38 0.049,-52.306 0.025,-104.612 -0.008,-156.917 0,-0.475 -0.227,-0.949 -0.436,-1.769 H 0 Z" />
        </g>
        <g
           transform="translate(427.5703,397.8145)"
           id="g908"
           style="fill:#ff0a9b;fill-opacity:1">
          <path
             inkscape:connector-curvature="0"
             id="path910"
             style="fill:#ff0a9b;fill-opacity:1;fill-rule:evenodd;stroke:none"
             d="m 0,0 h -25.988 c -0.085,1.839 -0.24,3.624 -0.24,5.408 -0.013,50.495 0.016,100.989 -0.07,151.485 -0.006,3.365 0.998,5.013 4.097,6.831 7.567,4.437 14.613,9.765 22.201,14.962 z" />
        </g>
        <path
           inkscape:connector-curvature="0"
           id="path912"
           style="fill:#ff0a9b;fill-opacity:1;fill-rule:evenodd;stroke:none"
           d="m 247.706,756.935 h 15.661 V 505.744 h -15.661 z" />
        <path
           inkscape:connector-curvature="0"
           id="path914"
           style="fill:#ff0a9b;fill-opacity:1;fill-rule:evenodd;stroke:none"
           d="m 705.585,505.624 h -13.5 v 251.249 h 13.5 z" />
        <path
           inkscape:connector-curvature="0"
           id="path916"
           style="fill:#ff0a9b;fill-opacity:1;fill-rule:evenodd;stroke:none"
           d="m 149.187,756.943 h 13.291 V 505.797 h -13.291 z" />
        <path
           inkscape:connector-curvature="0"
           id="path918"
           style="fill:#ff0a9b;fill-opacity:1;fill-rule:evenodd;stroke:none"
           d="m 713.334,756.978 h 11.993 V 505.757 h -11.993 z" />
        <g
           transform="translate(332.4795,714.8369)"
           id="g920"
           style="fill:#ff0a9b;fill-opacity:1">
          <path
             inkscape:connector-curvature="0"
             id="path922"
             style="fill:#ff0a9b;fill-opacity:1;fill-rule:evenodd;stroke:none"
             d="M 0,0 C -7.905,3.922 -15.311,7.595 -23.207,11.513 V 123.581 H 0 Z" />
        </g>
        <g
           transform="translate(616.4385,726.3457)"
           id="g924"
           style="fill:#ff0a9b;fill-opacity:1">
          <path
             inkscape:connector-curvature="0"
             id="path926"
             style="fill:#ff0a9b;fill-opacity:1;fill-rule:evenodd;stroke:none"
             d="M 0,0 C -7.741,-3.804 -15.279,-7.506 -23.136,-11.365 V 112.216 H 0 Z" />
        </g>
        <path
           inkscape:connector-curvature="0"
           id="path928"
           style="fill:#ff0a9b;fill-opacity:1;fill-rule:evenodd;stroke:none"
           d="M 474.447,752.546 H 452.21 v 95.978 h 22.237 z" />
        <g
           transform="translate(548.1934,429.0488)"
           id="g930"
           style="fill:#ff0a9b;fill-opacity:1">
          <path
             inkscape:connector-curvature="0"
             id="path932"
             style="fill:#ff0a9b;fill-opacity:1;fill-rule:evenodd;stroke:none"
             d="m 0,0 v 111.758 c 6.617,-3.614 12.981,-7.01 19.222,-10.619 0.676,-0.392 0.885,-2.026 0.888,-3.084 C 20.158,74.914 20.196,51.772 20.046,28.632 20.034,26.867 18.905,24.89 17.789,23.387 11.863,15.413 5.776,7.561 0,0" />
        </g>
        <g
           transform="translate(378.7432,540.8437)"
           id="g934"
           style="fill:#ff0a9b;fill-opacity:1">
          <path
             inkscape:connector-curvature="0"
             id="path936"
             style="fill:#ff0a9b;fill-opacity:1;fill-rule:evenodd;stroke:none"
             d="m 0,0 v -111.204 c -6.036,7.785 -12.419,15.948 -18.689,24.198 -0.726,0.954 -1.162,2.384 -1.165,3.595 -0.066,24.128 -0.05,48.255 -0.05,71.831 C -13.122,-7.635 -6.748,-3.926 0,0" />
        </g>
        <g
           transform="translate(299.9941,756.834)"
           id="g938"
           style="fill:#ff0a9b;fill-opacity:1">
          <path
             inkscape:connector-curvature="0"
             id="path940"
             style="fill:#ff0a9b;fill-opacity:1;fill-rule:evenodd;stroke:none"
             d="m 0,0 c 0,-13.172 0.02,-25.963 -0.043,-38.754 -0.005,-0.868 -0.374,-2.165 -1.001,-2.534 -7.087,-4.164 -9.389,-11.469 -11.82,-18.458 -2.5,-7.191 -4.385,-14.619 -6.125,-22.04 -0.694,-2.96 -1.73,-4.11 -4.91,-3.096 V 0 Z" />
        </g>
        <g
           transform="translate(299.9941,505.5576)"
           id="g942"
           style="fill:#ff0a9b;fill-opacity:1">
          <path
             inkscape:connector-curvature="0"
             id="path944"
             style="fill:#ff0a9b;fill-opacity:1;fill-rule:evenodd;stroke:none"
             d="m 0,0 h -23.825 v 71.417 c 2.996,1.15 4.078,-0.035 5.006,-3.088 2.216,-7.293 4.425,-14.693 7.75,-21.509 2.149,-4.408 6.283,-7.841 9.475,-11.754 0.65,-0.795 1.517,-1.774 1.526,-2.676 C 0.038,21.761 0,11.13 0,0" />
        </g>
        <g
           transform="translate(643.7178,756.8418)"
           id="g946"
           style="fill:#ff0a9b;fill-opacity:1">
          <path
             inkscape:connector-curvature="0"
             id="path948"
             style="fill:#ff0a9b;fill-opacity:1;fill-rule:evenodd;stroke:none"
             d="m 0,0 v -65.668 c -5.787,11.42 -7.278,24.725 -19.735,31.225 V 0 Z" />
        </g>
        <g
           transform="translate(643.418,505.6025)"
           id="g950"
           style="fill:#ff0a9b;fill-opacity:1">
          <path
             inkscape:connector-curvature="0"
             id="path952"
             style="fill:#ff0a9b;fill-opacity:1;fill-rule:evenodd;stroke:none"
             d="m 0,0 h -19.559 c 0,9.137 -0.012,18.064 0.028,26.991 0.003,0.593 0.269,1.295 0.645,1.759 6.345,7.835 12.727,15.64 18.886,23.189 z" />
        </g>
        <g
           transform="translate(309.6279,505.6074)"
           id="g954"
           style="fill:#ff0a9b;fill-opacity:1">
          <path
             inkscape:connector-curvature="0"
             id="path956"
             style="fill:#ff0a9b;fill-opacity:1;fill-rule:evenodd;stroke:none"
             d="M 0,0 V 19.791 C 7.08,14.68 12.425,7.285 22.356,8.198 V 0 Z" />
        </g>
        <g
           transform="translate(590.5381,505.7266)"
           id="g958"
           style="fill:#ff0a9b;fill-opacity:1">
          <path
             inkscape:connector-curvature="0"
             id="path960"
             style="fill:#ff0a9b;fill-opacity:1;fill-rule:evenodd;stroke:none"
             d="M 0,0 V 7.974 C 9.548,7.188 15.144,13.93 21.997,19.596 V 0 Z" />
        </g>
      </g>
    </g>
  </g>
</svg>
